# xmcd CD database file
#
# Track frame offsets:
#	150
#	29083
#	58034
#	87660
#	117659
#	140273
#	167030
#	189478
#	215954
#	240704
#
# Disc length: 3536 seconds
#
# Revision: 0
# Processed by: cddbd v1.5.2PL0 Copyright (c) Steve Scherf et al.
# Submitted via: CDex 1.79
#
DISCID=9d0dce0a
DTITLE=Various Performers - Venus Jazz Piano Lounge Relaxin' Afternoon Tea Time [CD1]
DYEAR=2013
DGENRE=Jazz
TTITLE0=Love For Sale - Jacky Terrasson Jazz Trio
TTITLE1=But Not For Me - Stanley Cowell Trio
TTITLE2=Time After Time - Bill Charlap Trio
TTITLE3=My Funny Valentine - Ted Rosenthal Trio
TTITLE4=Someday My Prince Will Come - Harold Mabern Trio
TTITLE5=Fly Me To The Moon - Dan Nimmer Trio
TTITLE6=Moon River - Jon Davis Trio
TTITLE7=Hush A Bye - John Di Martino's Romantic Jazz Trio
TTITLE8=I'll Be Seeing You - Andrea Pozza Trio
TTITLE9=Autumn Leaves - Steve Kuhn Trio
EXTD=YEAR: 2013
EXTT0=
EXTT1=
EXTT2=
EXTT3=
EXTT4=
EXTT5=
EXTT6=
EXTT7=
EXTT8=
EXTT9=
PLAYORDER=
